<svg width="70" height="70" viewBox="0 0 70 70" fill="none" xmlns="http://www.w3.org/2000/svg">
<path fill-rule="evenodd" clip-rule="evenodd" d="M37.0471 21.2863L46.7549 11.5784C48.0883 10.2451 48.7549 9.57843 49.5834 9.57843C50.4118 9.57843 51.0784 10.2451 52.4118 11.5784L52.4118 11.5784L58.4216 17.5882C59.7549 18.9216 60.4216 19.5882 60.4216 20.4167C60.4216 21.2451 59.7549 21.9118 58.4216 23.2451L48.7757 32.891C43.9516 30.0469 39.925 26.0499 37.0471 21.2863ZM35.5929 22.7405L12.5231 45.8103C12.098 46.2354 11.8855 46.4479 11.7457 46.709C11.606 46.9701 11.5471 47.2648 11.4292 47.8543L8.8971 60.5146C8.83058 60.8472 8.79732 61.0135 8.89193 61.1081C8.98654 61.2027 9.15284 61.1694 9.48545 61.1029L22.1458 58.5709C22.7352 58.453 23.0299 58.394 23.291 58.2543C23.5521 58.1146 23.7647 57.902 24.1897 57.477L24.1897 57.477L47.3178 34.3489C42.5444 31.4409 38.532 27.457 35.5929 22.7405Z" fill="#FFA115"/>
</svg>
