<svg width="18" height="27" viewBox="0 0 18 27" fill="none" xmlns="http://www.w3.org/2000/svg">
<path d="M3.43929 8.54987C3.43929 9.257 3.57321 9.92127 3.84107 10.5427C4.10892 11.1641 4.4732 11.7052 4.93391 12.1659C5.39461 12.6266 5.93032 12.9909 6.54102 13.2587C7.15173 13.5267 7.81065 13.6604 8.51778 13.6604C9.22491 13.6604 9.88919 13.5266 10.5106 13.2587C11.132 12.9909 11.6731 12.6266 12.1338 12.1659C12.5945 11.7052 12.9588 11.1641 13.2266 10.5427C13.4945 9.92127 13.6284 9.25705 13.6284 8.54987C13.6284 7.84274 13.4943 7.17846 13.2266 6.55704C12.9589 5.93562 12.5945 5.39456 12.1338 4.93385C11.6731 4.4732 11.132 4.10886 10.5106 3.84101C9.88919 3.57316 9.22491 3.43923 8.51778 3.43923C7.81065 3.43923 7.15173 3.57316 6.54102 3.84101C5.93032 4.10886 5.39461 4.47314 4.93391 4.93385C4.4732 5.39456 4.10892 5.93562 3.84107 6.55704C3.57321 7.17846 3.43929 7.84274 3.43929 8.54987ZM17.0677 8.54987C17.0677 9.57842 16.8909 10.5588 16.5373 11.4909C16.1837 12.423 15.6961 13.2587 15.0748 13.9979C14.4534 14.7372 13.7248 15.364 12.8891 15.8783C12.0534 16.3925 11.1427 16.7461 10.157 16.939V19.5749H12.3749C12.8463 19.5749 13.2426 19.7355 13.5641 20.057C13.8857 20.3784 14.0464 20.7855 14.0464 21.2784C14.0464 21.7712 13.8856 22.1783 13.5641 22.4998C13.2427 22.8212 12.8463 22.982 12.3749 22.982H10.157V25.3284C10.157 25.7999 9.99628 26.1961 9.67485 26.5178C9.31047 26.8391 8.90344 27 8.45344 27C8.00345 27 7.59631 26.8391 7.23203 26.5178C6.91061 26.1963 6.7499 25.7999 6.7499 25.3284V22.9819H4.66064C4.21065 22.9819 3.81959 22.8105 3.48745 22.4676C3.15531 22.1249 2.98924 21.7285 2.98924 21.2784C2.98924 20.8282 3.14995 20.4213 3.47138 20.057C3.7928 19.7355 4.18922 19.5749 4.66064 19.5749H6.7499V16.9069C5.78563 16.6926 4.891 16.3337 4.06601 15.8301C3.24102 15.3265 2.52853 14.7051 1.92854 13.9659C1.32855 13.2266 0.85713 12.3962 0.514278 11.4748C0.171426 10.5534 0 9.57842 0 8.54987C0 7.37131 0.224997 6.2624 0.67499 5.22313C1.12498 4.18386 1.73569 3.27852 2.50711 2.5071C3.27852 1.73569 4.17851 1.12498 5.20706 0.674989C6.23562 0.224997 7.33917 0 8.51768 0C9.69618 0 10.8052 0.224997 11.8444 0.674989C12.8837 1.12498 13.789 1.73569 14.5606 2.5071C15.332 3.27852 15.9426 4.18386 16.3927 5.22313C16.8426 6.2624 17.0677 7.37131 17.0677 8.54987Z" fill="#A528A8"/>
</svg>
