<svg width="29" height="30" viewBox="0 0 29 30" fill="none" xmlns="http://www.w3.org/2000/svg">
<ellipse cx="8.36112" cy="8.75" rx="3.75" ry="3.58333" transform="rotate(90 8.36112 8.75)" stroke="#FF8E15" stroke-width="3" stroke-linecap="round"/>
<path d="M11.9445 6.25H21.9861C22.4508 6.25 22.6831 6.25 22.8763 6.28843C23.6697 6.44624 24.2899 7.06644 24.4477 7.85982C24.4861 8.05302 24.4861 8.28534 24.4861 8.75V8.75C24.4861 9.21466 24.4861 9.44698 24.4477 9.64018C24.2899 10.4336 23.6697 11.0538 22.8763 11.2116C22.6831 11.25 22.4508 11.25 21.9861 11.25H11.9445" stroke="#FF8E15" stroke-width="3" stroke-linecap="round"/>
<ellipse rx="3.75" ry="3.58333" transform="matrix(4.17687e-08 1 1 -4.57445e-08 20.9028 21.5)" stroke="#FF8E15" stroke-width="3" stroke-linecap="round"/>
<path d="M17.3195 19H7.27779C6.81314 19 6.58081 19 6.38761 19.0385C5.59423 19.1963 4.97403 19.8165 4.81622 20.6098C4.77779 20.803 4.77779 21.0354 4.77779 21.5V21.5C4.77779 21.9647 4.77779 22.197 4.81622 22.3902C4.97403 23.1836 5.59423 23.8038 6.38761 23.9616C6.58081 24 6.81314 24 7.27779 24H17.3195" stroke="#FF8E15" stroke-width="3" stroke-linecap="round"/>
</svg>
