<svg width="45" height="45" viewBox="0 0 45 45" fill="none" xmlns="http://www.w3.org/2000/svg">
<path fill-rule="evenodd" clip-rule="evenodd" d="M22.3289 13.8026H7.625C6.68219 13.8026 6.21079 13.8026 5.91789 14.0955C5.625 14.3884 5.625 14.8598 5.625 15.8026V21.6382C5.625 22.581 5.625 23.0524 5.91789 23.3453C6.21079 23.6382 6.68219 23.6382 7.625 23.6382H11.5263V24.6053H22.3289V13.8026ZM11.5263 26.6053V37.375C11.5263 38.3178 11.5263 38.7892 11.8192 39.0821C12.1121 39.375 12.5835 39.375 13.5263 39.375H22.3289V26.6053H11.5263ZM24.3289 39.375H33.1316C34.0744 39.375 34.5458 39.375 34.8387 39.0821C35.1316 38.7892 35.1316 38.3178 35.1316 37.375V26.6053H24.3289V39.375ZM35.1316 24.6053V23.6382H39.0329C39.9757 23.6382 40.4471 23.6382 40.74 23.3453C41.0329 23.0524 41.0329 22.581 41.0329 21.6382V15.8026C41.0329 14.8598 41.0329 14.3884 40.74 14.0955C40.4471 13.8026 39.9757 13.8026 39.0329 13.8026H24.3289V24.6053H35.1316Z" fill="#FFA115"/>
<path d="M37 7.71194V4.68806C37 3.34834 35.7085 2.38744 34.4253 2.77241L30.3636 3.99092C28.8072 4.45784 27.3736 5.26377 26.1658 6.35078L23 9.2V11H30.7065C30.9011 11 31.0947 10.9716 31.2812 10.9157L35.5747 9.62759C36.4207 9.3738 37 8.59515 37 7.71194Z" fill="#FFA115"/>
<path d="M10 7.74436V4.74794C10 3.39061 11.3233 2.42752 12.6149 2.8448L15.9213 3.91303C17.5238 4.43076 18.986 5.30952 20.1953 6.48157L23 9.2V11H15.8865C15.6777 11 15.4703 10.9673 15.2716 10.9031L11.3851 9.64751C10.5595 9.38075 10 8.61205 10 7.74436Z" fill="#FFA115"/>
</svg>
