<svg width="28" height="28" viewBox="0 0 35 36" fill="none" xmlns="http://www.w3.org/2000/svg">
<path fill-rule="evenodd" clip-rule="evenodd" d="M0.686153 12.1791C0 13.4805 0 14.961 0 17.9221V27.1698C0 31.282 0 33.3382 1.46447 34.6157C2.92893 35.8932 5.28595 35.8932 10 35.8932H10.25V25.0625C10.25 23.1808 11.9466 21.875 13.75 21.875H21.25C23.0534 21.875 24.75 23.1808 24.75 25.0625V35.8932H25C29.714 35.8932 32.0711 35.8932 33.5355 34.6157C35 33.3382 35 31.282 35 27.1698V17.9221C35 14.961 35 13.4805 34.3138 12.1791C33.6277 10.8777 32.3391 9.91418 29.7619 7.98715L27.2619 6.11784C22.6036 2.63474 20.2744 0.893188 17.5 0.893188C14.7256 0.893188 12.3964 2.63474 7.73813 6.11784L5.23813 7.98715L5.23813 7.98715C2.66091 9.91418 1.37231 10.8777 0.686153 12.1791ZM22.75 35.8932V25.0625C22.75 24.5279 22.208 23.875 21.25 23.875H13.75C12.792 23.875 12.25 24.5279 12.25 25.0625V35.8932H22.75Z" fill="#FFA115"/>
</svg>
