<svg width="23" height="23" viewBox="0 0 23 23" fill="none" xmlns="http://www.w3.org/2000/svg">
<path d="M7.66667 7.66667C9.315 7.66667 10.8611 8.19056 12.1006 9.085L18.63 2.55556H12.7778V0H23V10.2222H20.4444V4.35722L13.915 10.8611C14.8094 12.1389 15.3333 13.6722 15.3333 15.3333C15.3333 17.3667 14.5256 19.3167 13.0878 20.7545C11.65 22.1923 9.69999 23 7.66667 23C5.63334 23 3.68329 22.1923 2.24551 20.7545C0.807736 19.3167 0 17.3667 0 15.3333C0 13.3 0.807736 11.35 2.24551 9.91218C3.68329 8.4744 5.63334 7.66667 7.66667 7.66667ZM7.66667 10.2222C6.31112 10.2222 5.01108 10.7607 4.05257 11.7192C3.09405 12.6778 2.55556 13.9778 2.55556 15.3333C2.55556 16.6889 3.09405 17.9889 4.05257 18.9474C5.01108 19.906 6.31112 20.4444 7.66667 20.4444C9.02222 20.4444 10.3222 19.906 11.2808 18.9474C12.2393 17.9889 12.7778 16.6889 12.7778 15.3333C12.7778 13.9778 12.2393 12.6778 11.2808 11.7192C10.3222 10.7607 9.02222 10.2222 7.66667 10.2222Z" fill="#2C44BE"/>
</svg>
