<svg width="40" height="40" viewBox="0 0 40 40" fill="none" xmlns="http://www.w3.org/2000/svg">
<rect width="40" height="40" rx="10" fill="#FFA115" fill-opacity="0.5"/>
<path fill-rule="evenodd" clip-rule="evenodd" d="M4.03491 20.5C4.03491 11.4066 11.4066 4.03491 20.5 4.03491C29.5934 4.03491 36.965 11.4066 36.965 20.5C36.965 25.7098 34.5453 30.3545 30.7684 33.3716C30.0711 31.3791 28.8067 29.6263 27.1227 28.3341C25.2227 26.8762 22.8948 26.086 20.5 26.086C18.1051 26.086 15.7772 26.8762 13.8772 28.3341C12.1932 29.6263 10.9288 31.379 10.2315 33.3716C6.45463 30.3545 4.03491 25.7098 4.03491 20.5ZM25.9052 29.9208C27.4302 31.091 28.5335 32.7239 29.0508 34.5733C26.5585 36.0909 23.6313 36.965 20.5 36.965C17.3686 36.965 14.4414 36.0909 11.9491 34.5733C12.4664 32.7239 13.5698 31.091 15.0948 29.9208C16.6454 28.7309 18.5454 28.086 20.5 28.086C22.4545 28.086 24.3545 28.7309 25.9052 29.9208ZM16.5605 15.5604C16.5605 13.3847 18.3242 11.6209 20.5 11.6209C22.6757 11.6209 24.4395 13.3847 24.4395 15.5604C24.4395 17.7362 22.6757 19.5 20.5 19.5C18.3242 19.5 16.5605 17.7362 16.5605 15.5604ZM20.5 9.62093C17.2197 9.62093 14.5605 12.2801 14.5605 15.5604C14.5605 18.8408 17.2197 21.5 20.5 21.5C23.7803 21.5 26.4395 18.8408 26.4395 15.5604C26.4395 12.2801 23.7803 9.62093 20.5 9.62093Z" fill="white"/>
<rect x="4.53491" y="4.53491" width="31.9301" height="31.9301" rx="15.9651" stroke="white"/>
</svg>
