<svg width="45" height="45" viewBox="0 0 45 45" fill="none" xmlns="http://www.w3.org/2000/svg">
<path d="M39.375 31.875H32.2022C29.3349 31.875 27.9013 31.875 26.8384 31.0842C25.7755 30.2933 25.3635 28.9202 24.5396 26.1738L22.3354 18.8262C21.5115 16.0798 21.0995 14.7067 20.0366 13.9158C18.9737 13.125 17.5401 13.125 14.6728 13.125H5.625M5.625 13.125L11.25 18.75M5.625 13.125L11.25 7.5" stroke="#FF8E15" stroke-width="2"/>
<path fill-rule="evenodd" clip-rule="evenodd" d="M4.91789 32.5821L10.5429 38.2071L11.9571 36.7929L8.03922 32.875H14.6728L14.733 32.875C16.1155 32.875 17.2393 32.875 18.1469 32.7694C19.0937 32.6593 19.9097 32.425 20.6335 31.8865C21.3574 31.3479 21.8162 30.6336 22.1938 29.7584C22.3497 29.3971 22.4983 28.9918 22.6487 28.5416C22.495 28.0588 22.3414 27.5469 22.1816 27.0139L22.1451 26.8922L21.6104 25.1101L21.3775 25.8864C20.9588 27.2822 20.6679 28.2465 20.3574 28.9662C20.0573 29.6619 19.7787 30.0296 19.4397 30.2819C19.1006 30.5341 18.6683 30.6953 17.9158 30.7828C17.1372 30.8734 16.13 30.875 14.6728 30.875H8.03922L11.9571 26.9571L10.5429 25.5429L4.91789 31.1679L4.21078 31.875L4.91789 32.5821ZM24.2263 16.4584C24.38 16.9412 24.5336 17.4531 24.6934 17.9861L24.7299 18.1079L25.2646 19.8899L25.4975 19.1136C25.9162 17.7178 26.2071 16.7535 26.5176 16.0338C26.8177 15.3381 27.0963 14.9704 27.4353 14.7181C27.7744 14.4659 28.2067 14.3047 28.9592 14.2172C29.7378 14.1266 30.745 14.125 32.2022 14.125H39.375V12.125H32.2022H32.142C30.7596 12.125 29.6357 12.125 28.7281 12.2306C27.7813 12.3407 26.9653 12.575 26.2415 13.1135C25.5176 13.6521 25.0588 14.3664 24.6812 15.2416C24.5253 15.6029 24.3767 16.0082 24.2263 16.4584Z" fill="#FFA115"/>
<path d="M10.5429 38.2071L9.83578 38.9142L10.5429 39.6213L11.25 38.9142L10.5429 38.2071ZM4.91789 32.5821L5.625 31.875V31.875L4.91789 32.5821ZM11.9571 36.7929L12.6642 37.5L13.3713 36.7929L12.6642 36.0858L11.9571 36.7929ZM8.03922 32.875V31.875H5.625L7.33211 33.5821L8.03922 32.875ZM14.6728 32.875L14.6728 31.875H14.6728V32.875ZM14.733 32.875L14.733 31.875L14.733 32.875ZM18.1469 32.7694L18.0313 31.7761L18.1469 32.7694ZM22.1938 29.7584L23.112 30.1545L23.112 30.1545L22.1938 29.7584ZM22.6487 28.5416L23.5972 28.8586L23.7006 28.5491L23.6016 28.2382L22.6487 28.5416ZM22.1816 27.0139L23.1394 26.7267L23.1394 26.7266L22.1816 27.0139ZM22.1451 26.8922L23.1029 26.6049L23.1029 26.6048L22.1451 26.8922ZM21.6104 25.1101L22.5683 24.8227L21.6104 21.63L20.6526 24.8227L21.6104 25.1101ZM21.3775 25.8864L22.3354 26.1738V26.1738L21.3775 25.8864ZM20.3574 28.9662L19.4392 28.5701V28.5701L20.3574 28.9662ZM19.4397 30.2819L20.0366 31.0842V31.0842L19.4397 30.2819ZM17.9158 30.7828L17.8002 29.7895H17.8002L17.9158 30.7828ZM8.03922 30.875L7.33211 30.1679L5.625 31.875H8.03922V30.875ZM11.9571 26.9571L12.6642 27.6642L13.3713 26.9571L12.6642 26.25L11.9571 26.9571ZM10.5429 25.5429L11.25 24.8358L10.5429 24.1287L9.83578 24.8358L10.5429 25.5429ZM4.91789 31.1679L5.625 31.875V31.875L4.91789 31.1679ZM4.21078 31.875L3.50368 31.1679L2.79657 31.875L3.50368 32.5821L4.21078 31.875ZM24.2263 16.4584L23.2778 16.1414L23.1744 16.4509L23.2734 16.7619L24.2263 16.4584ZM24.6934 17.9861L23.7356 18.2733L23.7356 18.2734L24.6934 17.9861ZM24.7299 18.1079L23.7721 18.3951L23.7721 18.3952L24.7299 18.1079ZM25.2646 19.8899L24.3067 20.1773L25.2646 23.37L26.2224 20.1773L25.2646 19.8899ZM25.4975 19.1136L24.5396 18.8262L25.4975 19.1136ZM26.5176 16.0338L25.5994 15.6377L26.5176 16.0338ZM27.4353 14.7181L26.8384 13.9158L26.8384 13.9158L27.4353 14.7181ZM28.9592 14.2172L29.0748 15.2105H29.0748L28.9592 14.2172ZM39.375 14.125V15.125H40.375V14.125H39.375ZM39.375 12.125H40.375V11.125H39.375V12.125ZM32.142 12.125L32.142 13.125H32.142V12.125ZM28.7281 12.2306L28.6126 11.2373L28.6125 11.2373L28.7281 12.2306ZM26.2415 13.1135L25.6445 12.3112L25.6445 12.3112L26.2415 13.1135ZM24.6812 15.2416L25.5994 15.6377V15.6377L24.6812 15.2416ZM11.25 37.5L5.625 31.875L4.21078 33.2892L9.83578 38.9142L11.25 37.5ZM11.25 36.0858L9.83579 37.5L11.25 38.9142L12.6642 37.5L11.25 36.0858ZM7.33211 33.5821L11.25 37.5L12.6642 36.0858L8.74632 32.1679L7.33211 33.5821ZM14.6728 31.875H8.03922V33.875H14.6728V31.875ZM14.733 31.875L14.6728 31.875L14.6727 33.875L14.733 33.875L14.733 31.875ZM18.0313 31.7761C17.1943 31.8735 16.1369 31.875 14.733 31.875L14.733 33.875C16.094 33.875 17.2842 33.8766 18.2624 33.7627L18.0313 31.7761ZM20.0366 31.0842C19.5052 31.4795 18.8811 31.6773 18.0313 31.7761L18.2624 33.7627C19.3063 33.6413 20.3141 33.3705 21.2305 32.6888L20.0366 31.0842ZM21.2756 29.3623C20.9367 30.1479 20.568 30.6888 20.0366 31.0842L21.2305 32.6888C22.1468 32.007 22.6958 31.1194 23.112 30.1545L21.2756 29.3623ZM21.7003 28.2247C21.5548 28.6602 21.4161 29.0365 21.2756 29.3623L23.112 30.1545C23.2832 29.7577 23.4418 29.3234 23.5972 28.8586L21.7003 28.2247ZM23.6016 28.2382C23.4509 27.7649 23.2998 27.2614 23.1394 26.7267L21.2237 27.3012C21.383 27.8324 21.5391 28.3527 21.6959 28.8451L23.6016 28.2382ZM23.1394 26.7266L23.1029 26.6049L21.1872 27.1794L21.2238 27.3012L23.1394 26.7266ZM23.1029 26.6048L22.5683 24.8227L20.6526 25.3974L21.1872 27.1795L23.1029 26.6048ZM22.3354 26.1738L22.5683 25.3974L20.6526 24.8227L20.4197 25.5991L22.3354 26.1738ZM21.2756 29.3623C21.6145 28.5767 21.9236 27.5465 22.3354 26.1738L20.4197 25.5991C19.9941 27.0179 19.7213 27.9162 19.4392 28.5701L21.2756 29.3623ZM20.0366 31.0842C20.568 30.6888 20.9367 30.1479 21.2756 29.3623L19.4392 28.5701C19.1779 29.1758 18.9895 29.3704 18.8427 29.4796L20.0366 31.0842ZM18.0313 31.7761C18.8812 31.6773 19.5052 31.4795 20.0366 31.0842L18.8427 29.4796C18.696 29.5887 18.4555 29.7133 17.8002 29.7895L18.0313 31.7761ZM14.6728 31.875C16.1059 31.875 17.1815 31.875 18.0313 31.7761L17.8002 29.7895C17.0928 29.8718 16.154 29.875 14.6728 29.875V31.875ZM8.03922 31.875H14.6728V29.875H8.03922V31.875ZM11.25 26.25L7.33211 30.1679L8.74632 31.5821L12.6642 27.6642L11.25 26.25ZM9.83579 26.25L11.25 27.6642L12.6642 26.25L11.25 24.8358L9.83579 26.25ZM5.625 31.875L11.25 26.25L9.83578 24.8358L4.21078 30.4608L5.625 31.875ZM4.91789 32.5821L5.625 31.875L4.21078 30.4608L3.50368 31.1679L4.91789 32.5821ZM5.625 31.875L4.91789 31.1679L3.50368 32.5821L4.21078 33.2892L5.625 31.875ZM23.2734 16.7619C23.4241 17.2351 23.5752 17.7386 23.7356 18.2733L25.6513 17.6988C25.492 17.1676 25.3359 16.6473 25.1791 16.1549L23.2734 16.7619ZM23.7356 18.2734L23.7721 18.3951L25.6878 17.8206L25.6513 17.6988L23.7356 18.2734ZM23.7721 18.3952L24.3067 20.1773L26.2224 19.6026L25.6878 17.8205L23.7721 18.3952ZM24.5396 18.8262L24.3067 19.6026L26.2224 20.1773L26.4553 19.4009L24.5396 18.8262ZM25.5994 15.6377C25.2605 16.4233 24.9514 17.4535 24.5396 18.8262L26.4553 19.4009C26.8809 17.9821 27.1537 17.0838 27.4358 16.4299L25.5994 15.6377ZM26.8384 13.9158C26.307 14.3112 25.9383 14.8521 25.5994 15.6377L27.4358 16.4299C27.6971 15.8242 27.8855 15.6296 28.0323 15.5204L26.8384 13.9158ZM28.8437 13.2239C27.9938 13.3227 27.3698 13.5205 26.8384 13.9158L28.0323 15.5204C28.179 15.4113 28.4195 15.2867 29.0748 15.2105L28.8437 13.2239ZM32.2022 13.125C30.7691 13.125 29.6935 13.125 28.8437 13.2239L29.0748 15.2105C29.7822 15.1282 30.721 15.125 32.2022 15.125V13.125ZM39.375 13.125H32.2022V15.125H39.375V13.125ZM38.375 12.125V14.125H40.375V12.125H38.375ZM32.2022 13.125H39.375V11.125H32.2022V13.125ZM32.142 13.125H32.2022V11.125H32.142V13.125ZM28.8437 13.2239C29.6807 13.1265 30.7381 13.125 32.142 13.125L32.142 11.125C30.781 11.125 29.5908 11.1234 28.6126 11.2373L28.8437 13.2239ZM26.8384 13.9158C27.3698 13.5205 27.9939 13.3227 28.8437 13.2239L28.6125 11.2373C27.5687 11.3587 26.5609 11.6295 25.6445 12.3112L26.8384 13.9158ZM25.5994 15.6377C25.9383 14.8522 26.307 14.3112 26.8384 13.9158L25.6445 12.3112C24.7282 12.993 24.1792 13.8806 23.763 14.8455L25.5994 15.6377ZM25.1747 16.7753C25.3202 16.3398 25.4589 15.9635 25.5994 15.6377L23.763 14.8455C23.5918 15.2423 23.4332 15.6766 23.2778 16.1414L25.1747 16.7753Z" fill="#FFA115"/>
</svg>
