<svg width="65" height="70" viewBox="0 0 65 70" fill="none" xmlns="http://www.w3.org/2000/svg">
<path fill-rule="evenodd" clip-rule="evenodd" d="M61.2502 17.5H8.75024V26.25H10.5836C12.4692 26.25 13.412 26.25 13.9978 26.8358C14.5836 27.4216 14.5836 28.3644 14.5836 30.25V55.25C14.5836 58.0784 14.5836 59.4926 15.4623 60.3713C16.3409 61.25 17.7551 61.25 20.5836 61.25H49.4169C52.2453 61.25 53.6596 61.25 54.5382 60.3713C55.4169 59.4926 55.4169 58.0784 55.4169 55.25V30.25C55.4169 28.3644 55.4169 27.4216 56.0027 26.8358C56.5885 26.25 57.5313 26.25 59.4169 26.25H61.2502V17.5ZM28.7086 32.0833C28.7086 31.531 28.2609 31.0833 27.7086 31.0833C27.1563 31.0833 26.7086 31.531 26.7086 32.0833V46.6667C26.7086 47.219 27.1563 47.6667 27.7086 47.6667C28.2609 47.6667 28.7086 47.219 28.7086 46.6667V32.0833ZM43.2919 32.0833C43.2919 31.531 42.8442 31.0833 42.2919 31.0833C41.7396 31.0833 41.2919 31.531 41.2919 32.0833V46.6667C41.2919 47.219 41.7396 47.6667 42.2919 47.6667C42.8442 47.6667 43.2919 47.219 43.2919 46.6667V32.0833Z" fill="#FFA115"/>
<path d="M29.3654 9.83089C29.6977 9.5208 30.4301 9.24679 31.4488 9.05136C32.4676 8.85593 33.7158 8.75 34.9999 8.75C36.284 8.75 37.5323 8.85593 38.551 9.05136C39.5698 9.24679 40.3021 9.5208 40.6345 9.83089" stroke="#FFA115" stroke-width="2" stroke-linecap="round"/>
</svg>
